<svg xmlns="http://www.w3.org/2000/svg" viewBox="0 0 192 192" role="img" aria-label="Khayt">
  <!-- The letter khāʾ, from the same centreline as assets/icon-masters/*.png,
       so the vector mark and the rasters cannot drift apart. This one carries
       the SMALL master's geometry — a single width — because a stroked path
       cannot express the large master's taper, and an inline mark is drawn at
       sidebar sizes, where the small art is the right art. -->
  <g fill="none" stroke="currentColor" stroke-width="25.58" stroke-linecap="round" stroke-linejoin="round">
    <path d="M143.44,165.10 C142.93,165.44 141.40,166.54 140.37,167.17 C139.35,167.79 138.37,168.28 137.28,168.86 C136.20,169.43 134.99,170.08 133.84,170.61 C132.69,171.14 131.53,171.58 130.38,172.05 C129.22,172.51 128.07,172.96 126.91,173.40 C125.76,173.84 124.61,174.31 123.45,174.68 C122.30,175.05 121.14,175.32 119.99,175.63 C118.84,175.94 117.70,176.28 116.54,176.55 C115.39,176.83 114.24,177.06 113.08,177.28 C111.93,177.50 110.77,177.71 109.62,177.89 C108.46,178.07 107.31,178.24 106.15,178.38 C105.00,178.53 103.84,178.68 102.69,178.78 C101.54,178.87 100.40,178.88 99.25,178.95 C98.10,179.03 96.94,179.20 95.78,179.21 C94.63,179.22 93.47,179.05 92.32,178.99 C91.17,178.93 90.01,178.93 88.86,178.85 C87.71,178.78 86.56,178.66 85.41,178.52 C84.26,178.38 83.10,178.18 81.95,177.99 C80.80,177.80 79.64,177.63 78.49,177.40 C77.33,177.17 76.18,176.91 75.02,176.59 C73.87,176.28 72.71,175.90 71.56,175.51 C70.41,175.12 69.27,174.72 68.12,174.23 C66.96,173.75 65.74,173.18 64.65,172.60 C63.56,172.01 62.61,171.42 61.58,170.73 C60.56,170.04 59.45,169.26 58.49,168.45 C57.53,167.64 56.66,166.75 55.82,165.87 C54.98,164.99 54.15,164.13 53.46,163.17 C52.76,162.21 52.17,161.19 51.63,160.10 C51.08,159.01 50.58,157.79 50.21,156.64 C49.83,155.49 49.61,154.35 49.38,153.19 C49.16,152.04 49.01,150.89 48.87,149.73 C48.73,148.58 48.56,147.42 48.56,146.27 C48.56,145.11 48.74,143.96 48.87,142.80 C49.00,141.65 49.15,140.51 49.32,139.36 C49.50,138.21 49.64,137.05 49.93,135.90 C50.22,134.74 50.60,133.59 51.06,132.43 C51.51,131.28 52.11,130.06 52.67,128.97 C53.23,127.88 53.76,126.92 54.40,125.90 C55.04,124.88 55.74,123.79 56.49,122.83 C57.24,121.87 58.06,121.02 58.91,120.14 C59.76,119.25 60.69,118.33 61.58,117.50 C62.47,116.67 63.30,115.93 64.26,115.14 C65.22,114.34 66.32,113.50 67.35,112.74 C68.38,111.97 69.40,111.24 70.42,110.55 C71.44,109.86 72.46,109.19 73.49,108.58 C74.51,107.97 75.53,107.44 76.56,106.89 C77.58,106.34 78.56,105.80 79.65,105.28 C80.74,104.76 81.94,104.27 83.09,103.78 C84.24,103.29 85.40,102.82 86.55,102.35 C87.71,101.87 88.86,101.38 90.02,100.93 C91.17,100.48 92.33,100.04 93.48,99.65 C94.64,99.26 95.79,98.93 96.94,98.59 C98.10,98.25 99.25,97.93 100.39,97.60 C101.53,97.28 102.75,97.26 103.77,96.66 C104.79,96.06 105.68,94.94 106.51,93.98 C107.33,93.03 108.33,92.02 108.71,90.93 C109.10,89.85 109.13,88.55 108.81,87.47 C108.49,86.39 107.61,85.31 106.78,84.44 C105.95,83.57 104.90,82.77 103.83,82.24 C102.77,81.70 101.54,81.55 100.39,81.21 C99.24,80.88 98.10,80.54 96.94,80.23 C95.79,79.92 94.64,79.63 93.48,79.34 C92.33,79.05 91.17,78.75 90.02,78.48 C88.86,78.20 87.71,77.95 86.55,77.69 C85.40,77.43 84.24,77.13 83.09,76.90 C81.94,76.68 80.80,76.51 79.65,76.35 C78.50,76.19 77.34,76.06 76.18,75.96 C75.03,75.86 73.88,75.74 72.72,75.76 C71.57,75.78 70.41,75.92 69.26,76.06 C68.11,76.19 66.96,76.36 65.81,76.57 C64.66,76.77 63.50,76.96 62.35,77.30 C61.20,77.63 59.98,78.05 58.89,78.56 C57.80,79.06 56.80,79.60 55.82,80.33 C54.83,81.05 53.79,81.95 52.98,82.88 C52.18,83.82 51.55,84.91 51.00,85.93 C50.44,86.95 49.88,88.49 49.66,89.00"/>
  </g>
  <circle cx="103.59" cy="36.40" r="23.61" fill="currentColor"/>
</svg>
